<?xml version="1.0" encoding="UTF-8"?>
<svg version="1.1" xmlns="http://www.w3.org/2000/svg" width="1157" height="283">
<path d="M0 0 C4.78549139 4.40055241 7.59359264 7.88928954 8.23828125 14.41015625 C8.46043678 22.34929326 7.31191015 29.69922569 2.3515625 36.140625 C-2.52209799 41.20582673 -7.36744036 43.78914679 -14 46 C-14.99 46.99 -14.99 46.99 -16 48 C-23.66937812 48.77376515 -28.89877791 46.76388513 -35.8125 43.625 C-47.01323991 38.81371031 -47.01323991 38.81371031 -59 37 C-59.95390625 36.96003906 -60.9078125 36.92007813 -61.890625 36.87890625 C-72.06285066 37.07862272 -81.902707 41.70109507 -89.3125 48.625 C-91.67471786 51.25430279 -92.88970577 53.36029028 -93 57 C-88.32659682 60.69763768 -84.81009192 61.65007144 -78.8125 61.5 C-77.64750977 61.48404785 -77.64750977 61.48404785 -76.45898438 61.46777344 C-64.68088288 61.09528744 -47.42166845 59.29763983 -38.1171875 51.40234375 C-35.31985543 49.54949834 -33.39362071 49.59979606 -30.0625 49.625 C-28.53302734 49.61339844 -28.53302734 49.61339844 -26.97265625 49.6015625 C-22.12904425 50.25077199 -19.68573603 52.10473351 -16.75 55.9375 C-13.53140163 61.57004714 -13.78531136 66.83586896 -13.75 73.1875 C-13.7190625 74.5497168 -13.7190625 74.5497168 -13.6875 75.93945312 C-13.64477759 83.39985377 -14.67183504 90.35498561 -19.375 96.375 C-25.59535122 102.59535122 -31.50689198 103.42391132 -40.08178711 103.60693359 C-48.22735451 103.42759162 -55.16258279 100.21083864 -62.50390625 96.9453125 C-69.94360257 93.64138683 -76.85992542 92.00761436 -85 93 C-88.83560001 94.91780001 -89.6824929 96.11803584 -91.125 100.125 C-90.88234699 107.64724333 -87.20330412 113.22877822 -81.875 118.375 C-71.71237556 126.7731621 -58.70054888 127.82759113 -46 127 C-42.15531448 126.6202608 -38.32869108 126.14030333 -34.5 125.625 C-33.55640625 125.49899414 -32.6128125 125.37298828 -31.640625 125.24316406 C-29.08292078 124.87686428 -26.54389438 124.45115505 -24 124 C-22.25589844 123.72542969 -22.25589844 123.72542969 -20.4765625 123.4453125 C-17.91655525 122.27751466 -17.91655525 122.27751466 -17.23535156 120.25048828 C-16.64021582 117.92381086 -16.23196571 115.62476134 -15.875 113.25 C-14.88828088 107.19291231 -13.90972659 102.83771617 -10 98 C-4.49414289 95.24707144 3.60807313 96.35247721 9.34765625 97.90625 C18.32519767 101.44732828 25.02995168 105.93900004 29.1171875 114.8984375 C31.99494786 125.00879911 31.05924782 136.7743128 26 146 C23.89320417 149.23320152 21.56254818 152.11919102 19 155 C18.51144531 155.60457031 18.02289062 156.20914063 17.51953125 156.83203125 C6.02163588 169.92603549 -15.70857154 176.52353579 -32.5 177.625 C-77.642985 180.00499603 -77.642985 180.00499603 -91 168 C-104.90640243 154.3469018 -113.5961908 137.12792776 -117 118 C-117.07347656 119.97419922 -117.07347656 119.97419922 -117.1484375 121.98828125 C-118.39397931 152.49679729 -118.39397931 152.49679729 -129.68359375 163.12109375 C-137.66857131 169.59794739 -147.32023318 172.89347018 -157 176 C-158.09183594 176.36867187 -159.18367187 176.73734375 -160.30859375 177.1171875 C-170.02810731 179.44164259 -182.965903 179.82240624 -192.03125 175.2578125 C-200.85651054 169.6194516 -205.43829201 163.32128707 -207.8125 153.0625 C-208.83287886 147.61854686 -209.54899091 142.52040864 -209 137 C-208.93039062 136.24847656 -208.86078125 135.49695313 -208.7890625 134.72265625 C-206.29028698 117.59216185 -194.09185152 103.42593623 -181 93 C-175.35410547 89.02835999 -169.49575659 85.39695815 -163 83 C-163.36351562 81.79988281 -163.72703125 80.59976563 -164.1015625 79.36328125 C-166.89523302 70.1125863 -169.64649399 60.85086493 -172.3125 51.5625 C-172.69365967 50.24149292 -172.69365967 50.24149292 -173.08251953 48.89379883 C-173.3195459 48.06388428 -173.55657227 47.23396973 -173.80078125 46.37890625 C-174.00872314 45.6526001 -174.21666504 44.92629395 -174.4309082 44.17797852 C-176.06190116 37.93598444 -176.21762879 32.05068552 -176.25 25.625 C-176.270625 24.60921875 -176.29125 23.5934375 -176.3125 22.546875 C-176.34361369 16.55748997 -175.83817025 12.30289705 -173 7 C-172.34 7 -171.68 7 -171 7 C-171 6.34 -171 5.68 -171 5 C-161.63206124 -0.76488539 -153.45034578 -2.77618733 -142.546875 -0.484375 C-135.57194419 1.8051061 -131.54076312 5.55251343 -128.25 11.875 C-120.02686699 28.92429578 -121.35700935 50.58162681 -120.47198486 69.05389404 C-120.30846679 72.44043677 -120.13829142 75.82664506 -119.96875 79.21289062 C-119.63984079 85.80830883 -119.31734318 92.4040157 -119 99 C-119.00392761 98.21332947 -119.00785522 97.42665894 -119.01190186 96.6161499 C-119.02766761 92.98889633 -119.03730435 89.36165001 -119.046875 85.734375 C-119.05630127 83.8788501 -119.05630127 83.8788501 -119.06591797 81.98583984 C-119.15812418 35.23728927 -119.15812418 35.23728927 -105 19 C-81.12726816 -2.39471435 -28.95739454 -20.23467675 0 0 Z M-165.8125 122.625 C-166.8953125 123.800625 -166.8953125 123.800625 -168 125 C-168.763125 125.433125 -169.52625 125.86625 -170.3125 126.3125 C-172.39884797 128.04987124 -172.39884797 128.04987124 -172.4375 131.75 C-172.23216692 136.02250758 -171.12648871 140.87351129 -168 144 C-160.43072255 144.83797808 -153.6286775 143.87861952 -147 140 C-144.62232767 136.4334915 -144.50370609 134.11109138 -145 130 C-146.14841335 124.76175329 -147.44696168 119.73977114 -150 115 C-156.41957064 115 -161.19054394 118.31117434 -165.8125 122.625 Z " fill="#0094FF" transform="translate(1054,61)"/>
<path d="M0 0 C0.835383 -0.00100708 1.67076599 -0.00201416 2.53146362 -0.00305176 C30.84742441 0.01995367 58.58759818 2.29839284 79.75 23.25 C82.45412988 26.93039274 84.32411084 30.67169151 84.75 35.25 C84.87955078 36.29414062 84.87955078 36.29414062 85.01171875 37.359375 C85.76349917 47.85088836 79.90778736 56.66044225 73.38671875 64.46875 C69.84317123 68.32521222 66.96482257 69.49085545 61.8125 70.0625 C55.59883945 69.92905226 51.79507203 66.84616157 47.10620117 63.17919922 C35.35961215 54.0986972 22.32106928 52.10119985 7.83203125 53.67578125 C-4.47640301 55.47639285 -16.18234303 59.76695284 -24.76171875 69.19140625 C-27.35066941 72.77244824 -29.25 76.74363875 -29.25 81.25 C-28.3528125 81.11722656 -27.455625 80.98445313 -26.53125 80.84765625 C-13.25111728 78.96813333 -0.03242314 78.1704568 13.375 78 C14.31158447 77.97856934 15.24816895 77.95713867 16.21313477 77.93505859 C21.4459587 77.90951647 25.29465069 78.16441828 29.75 81.25 C31.24208867 85.726266 30.97530176 90.12292075 31 94.8125 C31.020625 95.76447266 31.04125 96.71644531 31.0625 97.69726562 C31.10996784 106.41354817 29.79359944 115.5702322 23.75 122.25 C13.24366027 128.634134 -1.25989949 130.34854695 -13.25 128.25 C-19.94217924 126.0592436 -26.1541648 122.74099786 -32.25 119.25 C-31.80011719 120.34957031 -31.35023438 121.44914062 -30.88671875 122.58203125 C-30.63365967 123.20053955 -30.38060059 123.81904785 -30.11987305 124.45629883 C-27.31769083 130.23447249 -21.87473872 132.8494839 -16.25 135.25 C-5.94959488 138.68346837 6.03955165 135.23043882 15.45410156 130.63305664 C18.98413221 128.83697037 22.46460167 126.95112636 25.94140625 125.0546875 C29.94631254 123.27280695 33.7935431 123.91816802 37.8125 125.3125 C43.12995971 128.81976066 46.66436018 132.54898949 48.125 138.875 C49.4498647 148.0514313 50.21372895 156.83927577 45.40625 165.10546875 C35.83509998 177.49830215 14.1533204 182.16354667 -0.64453125 184.87109375 C-20.91356218 187.00120859 -35.32236314 184.24726177 -51.94921875 172.3125 C-54.43702082 170.08234806 -55.6798786 168.15467372 -57.1875 165.1875 C-59.35731967 160.94218906 -59.35731967 160.94218906 -61.75390625 156.82421875 C-67.28364158 147.77162332 -69.73548368 137.47174266 -72.25 127.25 C-72.42001022 126.62488022 -72.59002045 125.99976044 -72.7651825 125.35569763 C-74.39135856 118.92016242 -74.55632505 112.72875434 -74.55078125 106.11328125 C-74.55506638 104.95741013 -74.5593515 103.801539 -74.56376648 102.61064148 C-74.56948972 100.16743623 -74.5700249 97.72421394 -74.56567383 95.28100586 C-74.56254794 91.61866521 -74.58588047 87.95716088 -74.61132812 84.29492188 C-74.65012635 69.70530594 -73.75179259 55.62817622 -71.25 41.25 C-71.12514725 40.53061752 -71.00029449 39.81123505 -70.87165833 39.0700531 C-69.06777489 28.88083419 -66.54734838 17.97292273 -59.25 10.25 C-53.69153672 6.38232403 -48.13141296 4.96850959 -41.5625 3.5625 C-40.64533203 3.35044922 -39.72816406 3.13839844 -38.78320312 2.91992188 C-25.96619598 0.08065474 -13.0643506 0.01096016 0 0 Z " fill="#0094FF" transform="translate(229.25,50.75)"/>
<path d="M0 0 C0.64195313 0.57363281 1.28390625 1.14726563 1.9453125 1.73828125 C2.89664063 2.54910156 3.84796875 3.35992187 4.828125 4.1953125 C13.51336785 11.74968601 13.51336785 11.74968601 13.9453125 15.73828125 C14.6053125 15.73828125 15.2653125 15.73828125 15.9453125 15.73828125 C24.17467355 26.71840366 25.91554497 37.37063386 24.9453125 50.73828125 C23.80048267 57.91254817 20.71865986 64.23364111 15.9453125 69.73828125 C15.2853125 69.73828125 14.6253125 69.73828125 13.9453125 69.73828125 C13.7184375 70.52203125 13.4915625 71.30578125 13.2578125 72.11328125 C11.60150196 75.42590233 10.30492964 75.47842482 6.9453125 76.73828125 C6.71070313 77.32222656 6.47609375 77.90617187 6.234375 78.5078125 C4.27081886 81.90535963 1.1211295 83.43673436 -2.1796875 85.36328125 C-3.13875 85.95496094 -3.13875 85.95496094 -4.1171875 86.55859375 C-8.67473658 89.26749842 -12.86419888 90.66319118 -18.0546875 91.73828125 C-17.18070313 92.92357422 -17.18070313 92.92357422 -16.2890625 94.1328125 C-9.51662968 103.41604186 -3.29981119 113.00388622 2.73388672 122.78173828 C3.73677492 124.40147751 4.76200984 126.00735639 5.79296875 127.609375 C6.9453125 129.73828125 6.9453125 129.73828125 6.9453125 132.73828125 C7.6053125 132.73828125 8.2653125 132.73828125 8.9453125 132.73828125 C23.92926601 165.19731701 23.92926601 165.19731701 21.9453125 178.73828125 C19.90609569 183.92901496 16.28934483 186.52385093 11.33984375 188.82421875 C6.74525698 190.06142623 2.37472055 190.21178537 -2.3671875 190.23828125 C-3.23923828 190.24456543 -4.11128906 190.25084961 -5.00976562 190.25732422 C-9.97654795 190.15871617 -12.91453987 189.72300012 -17.0546875 186.73828125 C-18.82373047 184.65551758 -18.82373047 184.65551758 -20.421875 182.2578125 C-21.01838867 181.36787598 -21.61490234 180.47793945 -22.22949219 179.56103516 C-25.25849349 174.87653635 -28.2432892 170.16892356 -31.1796875 165.42578125 C-31.82421875 164.38977783 -32.46875 163.35377441 -33.1328125 162.28637695 C-35.11022067 159.10580315 -37.08330538 155.9225931 -39.0546875 152.73828125 C-39.66280273 151.75601563 -40.27091797 150.77375 -40.89746094 149.76171875 C-45.54949278 142.24473169 -45.54949278 142.24473169 -47.6730957 138.80224609 C-51.03773686 133.3537221 -54.45773939 127.94962862 -57.98046875 122.6015625 C-59.0546875 120.73828125 -59.0546875 120.73828125 -59.0546875 118.73828125 C-59.7146875 118.73828125 -60.3746875 118.73828125 -61.0546875 118.73828125 C-62.4921875 116.65625 -62.4921875 116.65625 -64.0546875 113.92578125 C-65.66447022 111.13683269 -67.26740626 108.41920312 -69.0546875 105.73828125 C-68.76518207 109.59261323 -68.47252532 113.44670116 -68.1796875 117.30078125 C-68.09090332 118.48518799 -68.00211914 119.66959473 -67.91064453 120.88989258 C-67.48913346 126.43213354 -67.04991868 131.96730201 -66.4765625 137.49609375 C-65.31292754 148.89074175 -64.86620374 160.16707171 -64.8671875 171.61328125 C-64.86582794 172.66145523 -64.86582794 172.66145523 -64.86444092 173.73080444 C-64.86618606 185.54977981 -64.86618606 185.54977981 -66.0546875 186.73828125 C-89.06500418 187.78753217 -89.06500418 187.78753217 -97.4296875 182.67578125 C-116.24823508 161.61693039 -110.16010776 109.50327014 -108.7421875 82.80078125 C-104.17193821 20.04031563 -104.17193821 20.04031563 -89.0546875 -3.26171875 C-88.3946875 -3.26171875 -87.7346875 -3.26171875 -87.0546875 -3.26171875 C-87.01214844 -4.13763672 -87.01214844 -4.13763672 -86.96875 -5.03125 C-85.55513619 -8.48070933 -82.63534741 -9.43854329 -79.4296875 -10.94921875 C-78.82511719 -11.25666016 -78.22054687 -11.56410156 -77.59765625 -11.88085938 C-56.41342024 -22.2019637 -17.82064709 -14.8239015 0 0 Z M-59.2421875 27.05078125 C-63.69752743 33.65697494 -65.08482858 39.37951832 -64.9140625 47.4140625 C-63.81187622 51.67751945 -62.46672588 52.66307594 -58.7421875 54.92578125 C-48.68026616 59.60794441 -37.6991957 63.14156109 -26.7421875 59.55078125 C-22.30531067 57.60964763 -19.20746492 55.16934009 -17.0859375 50.6953125 C-15.02303205 45.14647886 -13.83370857 39.47976054 -15.72265625 33.69140625 C-19.9625955 27.47448653 -31.5344153 25.10246402 -38.5546875 22.86328125 C-39.55943115 22.54049194 -39.55943115 22.54049194 -40.58447266 22.21118164 C-48.89873735 19.68088981 -53.14240632 20.60244115 -59.2421875 27.05078125 Z " fill="#0094FF" transform="translate(123.0546875,49.26171875)"/>
<path d="M0 0 C0.88107422 0.00563965 1.76214844 0.0112793 2.66992188 0.01708984 C18.16371658 0.30453901 32.43297612 6.16868304 44.25 16.3125 C44.25 16.9725 44.25 17.6325 44.25 18.3125 C44.91 18.3125 45.57 18.3125 46.25 18.3125 C47.72265625 20.39453125 47.72265625 20.39453125 49.3125 23.125 C49.83972656 24.01832031 50.36695313 24.91164063 50.91015625 25.83203125 C54.67034183 32.79330776 54.61211119 43.49116585 52.4609375 51.10546875 C49.85414895 56.40859202 46.44406609 59.64014724 41.25 62.3125 C38.50195312 62.58959961 38.50195312 62.58959961 35.53125 62.46484375 C34.44021973 62.43398682 33.34918945 62.40312988 32.22509766 62.37133789 C31.07831543 62.33129639 29.9315332 62.29125488 28.75 62.25 C12.05006664 61.98293861 -1.32161925 65.42174578 -14.125 76.9375 C-20.04337794 83.33875814 -24.01674762 91.48475837 -24.375 100.25 C-23.93627375 106.84043123 -20.87145639 110.37387392 -16.3125 114.875 C-4.82007346 124.51586893 12.16643323 126.43323246 26.62744141 127.4909668 C32.70237101 128.00175835 37.17845016 129.24095016 41.625 133.6875 C44.61808677 140.36438587 44.1355473 148.05023587 42.25 155.0625 C38.74212584 163.87259869 31.94194117 169.32441503 23.4609375 173.09375 C12.97005909 177.07568925 3.26215855 177.57408561 -7.875 177.625 C-9.05449219 177.63063965 -10.23398437 177.6362793 -11.44921875 177.64208984 C-23.92220893 177.53930962 -34.47039657 175.68597775 -45.75 170.3125 C-46.554375 169.94253906 -47.35875 169.57257813 -48.1875 169.19140625 C-59.80782107 163.36107155 -67.05990127 153.18205755 -71.75 141.3125 C-74.59946596 132.64164894 -76.42913851 123.43612659 -76.75 114.3125 C-76.78996094 113.22195312 -76.82992187 112.13140625 -76.87109375 111.0078125 C-77.48458433 76.86886602 -67.81897118 43.1202994 -43.875 18 C-31.78111303 6.33670034 -16.78387136 -0.11270827 0 0 Z " fill="#0094FF" transform="translate(676.75,55.6875)"/>
<path d="M0 0 C10.1966659 -0.39097645 17.84974626 2.72209908 25.421875 9.58984375 C27.62037226 12.02601639 29.13494183 14.30118027 30.734375 17.15234375 C31.67603516 18.50779297 31.67603516 18.50779297 32.63671875 19.890625 C39.62977385 30.76436989 42.48800248 43.58669747 44.734375 56.15234375 C44.96125 57.39371094 45.188125 58.63507813 45.421875 59.9140625 C49.13976143 85.03561459 51.00108301 121.90599546 37.79296875 144.46875 C35.734375 147.15234375 35.734375 147.15234375 32.734375 148.15234375 C32.404375 149.14234375 32.074375 150.13234375 31.734375 151.15234375 C28.50864673 154.36296323 25.87898998 154.58460625 21.421875 154.58984375 C15.58884891 154.45236502 12.31946119 153.74067207 7.734375 150.15234375 C0.17868449 141.28486075 1.35874643 128.9106137 1.546875 117.96484375 C1.56195897 116.42514339 1.57564077 114.88542864 1.58789062 113.34570312 C1.62057946 109.6142786 1.67215339 105.88340654 1.734375 102.15234375 C0.16592959 101.65423847 -1.40485435 101.16349363 -2.9765625 100.67578125 C-3.85103027 100.40169434 -4.72549805 100.12760742 -5.62646484 99.84521484 C-11.74347413 98.23928771 -17.69800067 98.57622551 -23.5390625 101.04296875 C-26.61617089 103.02011531 -28.0960462 105.749332 -29.265625 109.15234375 C-30.0883071 113.44857252 -30.47428171 117.65342444 -30.6953125 122.01953125 C-30.76878906 123.31761719 -30.84226562 124.61570312 -30.91796875 125.953125 C-31.03109341 127.98887915 -31.14048907 130.02455486 -31.23974609 132.06103516 C-32.13879891 150.17804576 -32.13879891 150.17804576 -37.828125 155.58984375 C-43.48733206 159.21754058 -49.93502923 158.98780382 -56.47265625 157.7265625 C-60.4958702 156.29783946 -62.46186789 153.99423315 -64.4453125 150.30981445 C-66.05742663 146.06985834 -65.84815819 141.75925461 -65.765625 137.27734375 C-65.75354004 136.2001709 -65.74145508 135.12299805 -65.72900391 134.01318359 C-64.8276607 95.36467938 -58.89094597 49.05126975 -32.265625 19.15234375 C-31.35296875 18.06179687 -31.35296875 18.06179687 -30.421875 16.94921875 C-23.41231015 8.64841827 -15.82056545 3.15671571 -5.203125 0.33984375 C-3.46858431 0.22912839 -1.73415458 0.11660695 0 0 Z M1.734375 32.15234375 C-8.21131617 40.23006247 -16.80510962 51.01711808 -21.265625 63.15234375 C-19.00577701 66.25963474 -16.18274958 67.07411173 -12.51171875 67.85546875 C-6.80245081 68.61008503 -2.07511358 68.20269299 2.609375 64.65234375 C6.93718967 60.42517594 8.65868942 55.63928661 8.7890625 49.6328125 C8.39445078 44.04819882 7.0888597 39.22354157 4.734375 34.15234375 C3.744375 33.49234375 2.754375 32.83234375 1.734375 32.15234375 Z " fill="#0094FF" transform="translate(794.265625,65.84765625)"/>
<path d="M0 0 C5.72814273 2.18214961 9.41071807 7.71712033 12.01171875 13.08984375 C13.54920077 16.99729804 14.47751559 20.82012471 15 25 C15.4125 24.54109375 15.825 24.0821875 16.25 23.609375 C24.42573679 14.92265466 34.85327111 11.09769068 46.76171875 10.56640625 C48.73684108 10.54301448 50.71234309 10.54223703 52.6875 10.5625 C54.25298584 10.57385986 54.25298584 10.57385986 55.85009766 10.58544922 C69.44850558 10.87245921 82.73346205 13.29309227 93.01953125 22.8828125 C101.64199806 32.14061897 104.51932121 42.75182693 104.25390625 55.26171875 C103.34615147 65.0515049 99.28541951 72.42535312 92 79 C84.69469496 83.98898881 76.99057369 83.66059196 68.4140625 82.71484375 C61.19793682 81.13850562 56.83002931 76.64395945 51.76171875 71.59375 C48.03257836 68.0914173 44.24483991 65.11920091 39 65 C32.9843414 66.58483028 28.69451713 69.34306333 25.31715393 74.5970459 C20.82570133 82.7910422 20.57562663 91.72027873 20.61987495 100.86454773 C20.62914693 102.96066016 20.61858385 105.05590819 20.60325623 107.15197754 C20.56358924 113.10244755 20.56194819 119.05283743 20.56420898 125.00341797 C20.56426049 128.66676081 20.54490094 132.3296309 20.51487541 135.99284363 C20.5042003 138.03743063 20.51608468 140.08105644 20.52870178 142.12561035 C20.45801241 151.03623142 19.8538609 159.95814589 13.4375 166.6875 C7.92006839 168.79415571 2.35313967 169.32022573 -3.2421875 167.1171875 C-5.33301538 165.88872443 -7.14043799 164.55555718 -9 163 C-9.61746094 162.49210938 -10.23492187 161.98421875 -10.87109375 161.4609375 C-17.25700704 155.66554953 -20.91348316 148.52667216 -22 140 C-22.15265936 136.28174198 -22.15715551 132.56600337 -22.16113281 128.8449707 C-22.16609772 127.73034958 -22.17106262 126.61572845 -22.17617798 125.46733093 C-22.19075976 121.78680804 -22.19759529 118.10632826 -22.203125 114.42578125 C-22.20888009 111.85995991 -22.21463777 109.29413858 -22.22039795 106.72831726 C-22.22955648 102.03596691 -22.23586113 97.34363368 -22.2388947 92.65127593 C-22.24336889 85.77066786 -22.2608938 78.89025908 -22.2898953 72.00971156 C-22.3142244 66.02750511 -22.32184423 60.04539203 -22.32357025 54.06313133 C-22.32658734 51.52953189 -22.33458379 48.9959331 -22.34775543 46.4623661 C-22.36491023 42.90876007 -22.36291234 39.35563319 -22.35644531 35.80200195 C-22.3656601 34.76629059 -22.37487488 33.73057922 -22.3843689 32.66348267 C-22.32703925 22.54956947 -20.49533048 11.94486353 -13.5 4.25 C-9.04496247 0.24046622 -5.89520579 -0.70788888 0 0 Z " fill="#0094FF" transform="translate(396,76)"/>
<path d="M0 0 C3.76393197 0.86349027 5.27066381 2.43760389 7.44921875 5.5390625 C9.36829361 8.83067957 11.12276717 12.12014595 12.65625 15.609375 C13.2440625 16.8778125 13.2440625 16.8778125 13.84375 18.171875 C19.9730496 36.5597738 14.44525193 57.7129203 6.65625 74.609375 C5.59966535 76.95693487 4.54913599 79.30711374 3.50097656 81.65844727 C2.78384904 83.26398769 2.06201248 84.86743497 1.33496094 86.46850586 C1.00270508 87.20593018 0.67044922 87.94335449 0.328125 88.703125 C0.0300293 89.35990234 -0.26806641 90.01667969 -0.57519531 90.69335938 C-1.35784223 92.6445071 -1.88227582 94.56065753 -2.34375 96.609375 C-1.40015625 96.73892578 -1.40015625 96.73892578 -0.4375 96.87109375 C7.2649885 98.13550828 13.04868879 100.29706751 17.96875 106.546875 C18.525625 107.5575 19.0825 108.568125 19.65625 109.609375 C20.5225 110.9396875 20.5225 110.9396875 21.40625 112.296875 C23.86048197 118.80058972 23.4186468 125.29317662 21.09375 131.796875 C17.4616357 139.82575924 11.60396057 145.79119652 3.65625 149.609375 C0.51269961 150.58034754 -2.31231177 150.71505182 -5.59375 150.671875 C-6.48578125 150.66285156 -7.3778125 150.65382812 -8.296875 150.64453125 C-9.31007813 150.62712891 -9.31007813 150.62712891 -10.34375 150.609375 C-10.41368164 151.21821533 -10.48361328 151.82705566 -10.55566406 152.4543457 C-14.27223915 184.0362711 -14.27223915 184.0362711 -28.25 195.12109375 C-34.05088687 198.6237479 -40.79117793 198.44022401 -47.34375 197.609375 C-50.78125 196.046875 -50.78125 196.046875 -53.34375 193.609375 C-53.85292969 193.135 -54.36210937 192.660625 -54.88671875 192.171875 C-63.75607989 183.06161763 -64.52333017 170.58082675 -64.46875 158.546875 C-64.46681641 157.5256958 -64.46488281 156.5045166 -64.46289062 155.45239258 C-64.42101556 148.12134816 -64.05940467 140.90649669 -63.34375 133.609375 C-63.34375 132.949375 -63.34375 132.289375 -63.34375 131.609375 C-64.06433594 131.34898437 -64.78492188 131.08859375 -65.52734375 130.8203125 C-68.45206339 129.56280475 -70.81075288 128.07168208 -73.40625 126.234375 C-74.24285156 125.64914063 -75.07945312 125.06390625 -75.94140625 124.4609375 C-81.75686134 119.97878187 -81.75686134 119.97878187 -83.09375 116.859375 C-83.84640803 110.08545275 -83.83961554 106.16292884 -79.8984375 100.49609375 C-74.48436988 93.92575541 -67.95720811 89.47072081 -59.34375 88.609375 C-52.99383195 88.19298693 -48.25669154 89.30989773 -42.34375 91.609375 C-35.36956635 83.06703171 -29.9508879 74.4478373 -25.65625 64.296875 C-25.37072266 63.63429687 -25.08519531 62.97171875 -24.79101562 62.2890625 C-19.76594276 49.97939923 -18.61738027 37.1138667 -17.52734375 23.98632812 C-16.79142108 15.95462034 -15.89440246 9.43535369 -11.34375 2.609375 C-7.44961782 0.01328688 -4.62287402 -0.22368745 0 0 Z " fill="#0094FF" transform="translate(351.34375,39.390625)"/>
<path d="M0 0 C0.93900146 -0.01047363 1.87800293 -0.02094727 2.84545898 -0.03173828 C13.72697828 0.10879262 22.52718729 4.29070259 30.5 11.625 C41.40403413 23.19966949 42.50088587 39.40911315 42.09765625 54.52734375 C41.57106453 65.87660711 38.74984429 76.21014397 33.8125 86.4375 C33.38195312 87.36175781 32.95140625 88.28601563 32.5078125 89.23828125 C25.62879227 102.97688944 15.1021899 112.11389004 0.8125 117.4375 C-11.41235372 120.38976059 -24.86773555 118.83999276 -35.74609375 112.44921875 C-44.66460276 106.78845851 -51.63271273 99.9616983 -54.1875 89.4375 C-54.82780452 85.77144274 -55.04536891 82.15444342 -55.1875 78.4375 C-55.21473145 77.74156738 -55.24196289 77.04563477 -55.27001953 76.32861328 C-55.99647522 54.86847245 -52.08226886 32.76867851 -37.1328125 16.29296875 C-25.74780006 5.43377014 -15.92835023 0.17052504 0 0 Z M-14.90234375 52.98046875 C-20.22799233 58.69601507 -25.11554789 64.12037344 -25.25 72.1875 C-23.93393852 76.21309984 -22.92407716 77.44995896 -19.1875 79.4375 C-11.36401149 80.51660186 -3.96252233 78.12034228 2.4453125 73.56640625 C7.05190362 69.64858197 10.48339637 66.45530682 11 60.1484375 C10.41682222 52.88301433 7.62782788 47.57469408 3.8125 41.4375 C-2.89536952 41.4375 -10.16067998 48.53899664 -14.90234375 52.98046875 Z " fill="#0094FF" transform="translate(555.1875,95.5625)"/>
<path d="M0 0 C1.57515373 1.57515373 1.20813951 3.12528919 1.25 5.3125 C1.21984405 10.55963501 0.10473077 15.21554007 -1.34375 20.23828125 C-2.32372259 24.10076622 -2.32372259 24.10076622 -2 28 C-0.03278925 30.25851834 2.26743115 32.03922707 4.625 33.875 C17.5176898 44.12993698 17.5176898 44.12993698 18.37109375 49.20825195 C18.375 51.4375 18.375 51.4375 18 55 C8.96691692 58.30478649 0.53091091 58.11897115 -9 58 C-9.04898437 59.17175781 -9.09796875 60.34351563 -9.1484375 61.55078125 C-10.23784577 85.23784577 -10.23784577 85.23784577 -13 88 C-18.6302521 88.56302521 -18.6302521 88.56302521 -21 88 C-25.39142798 84.22657099 -28.89169614 79.57078684 -32.5 75.0625 C-33.6142366 73.67810627 -34.72881488 72.29398748 -35.84375 70.91015625 C-36.37355469 70.25160645 -36.90335938 69.59305664 -37.44921875 68.91455078 C-39.60521639 66.25281692 -41.7986827 63.62433163 -44 61 C-44.52843506 61.18175781 -45.05687012 61.36351562 -45.60131836 61.55078125 C-48.04215152 62.38134069 -50.48954068 63.19069699 -52.9375 64 C-53.76830078 64.28617187 -54.59910156 64.57234375 -55.45507812 64.8671875 C-61.19706998 66.74394748 -65.96128963 67.29249051 -72 67 C-72.88127157 58.26888349 -71.38908656 53.77581804 -66 47 C-64.53640853 44.98297162 -63.07814022 42.96207081 -61.625 40.9375 C-60.41845142 39.29035783 -59.21075842 37.64405014 -58 36 C-58.433125 35.28714844 -58.86625 34.57429688 -59.3125 33.83984375 C-65.02407802 24.0164584 -65.02407802 24.0164584 -64 18 C-61.52524122 15.52524122 -60.67860444 15.6487223 -57.25 15.5625 C-49.92440117 15.65005696 -43.70682545 18.2585239 -37 21 C-35.88431641 19.88044922 -35.88431641 19.88044922 -34.74609375 18.73828125 C-13.83752045 -2.1108082 -13.83752045 -2.1108082 0 0 Z M-16 16 C-16 16.66 -16 17.32 -16 18 C-16.59039063 18.26683594 -17.18078125 18.53367187 -17.7890625 18.80859375 C-20.02615501 20.01409413 -21.54521253 21.31432277 -23.375 23.0625 C-26.4756932 25.8149512 -28.76648855 26.79348725 -33 27 C-33 28.32 -33 29.64 -33 31 C-35.10464793 30.69075786 -37.2087053 30.3774944 -39.3125 30.0625 C-41.07013672 29.80146484 -41.07013672 29.80146484 -42.86328125 29.53515625 C-46 29 -46 29 -49 28 C-48.835 28.680625 -48.67 29.36125 -48.5 30.0625 C-47.64173307 35.1048182 -47.30453953 38.68514505 -49.75 43.30859375 C-50.4925 44.34113281 -51.235 45.37367187 -52 46.4375 C-52.7425 47.48808594 -53.485 48.53867188 -54.25 49.62109375 C-54.8275 50.40613281 -55.405 51.19117188 -56 52 C-53.87060172 53.35026777 -53.87060172 53.35026777 -50.875 52.0625 C-46.8730309 50.89422331 -43.10957949 49.88352465 -39 51 C-31.6271383 56.0790825 -26.30078307 64.87435718 -21 72 C-20.34 71.67 -19.68 71.34 -19 71 C-18.53092949 68.87001829 -18.53092949 68.87001829 -18.3671875 66.30859375 C-18.28339844 65.36435547 -18.19960937 64.42011719 -18.11328125 63.44726562 C-18.03464844 62.45404297 -17.95601562 61.46082031 -17.875 60.4375 C-17.78863281 59.44041016 -17.70226563 58.44332031 -17.61328125 57.41601562 C-17.40043207 54.94460012 -17.19640679 52.47276775 -17 50 C-15.81921875 49.95101562 -14.6384375 49.90203125 -13.421875 49.8515625 C-11.86456063 49.77651121 -10.30727009 49.70096439 -8.75 49.625 C-7.97269531 49.5940625 -7.19539063 49.563125 -6.39453125 49.53125 C-5.64042969 49.49257812 -4.88632813 49.45390625 -4.109375 49.4140625 C-3.41811523 49.3826416 -2.72685547 49.3512207 -2.01464844 49.31884766 C0.29008165 48.95409033 1.97295747 48.13275906 4 47 C3.55084229 46.61142822 3.10168457 46.22285645 2.63891602 45.82250977 C0.61310199 44.06956798 -1.41220524 42.3160417 -3.4375 40.5625 C-4.14455078 39.95083984 -4.85160156 39.33917969 -5.58007812 38.70898438 C-6.25361328 38.12568359 -6.92714844 37.54238281 -7.62109375 36.94140625 C-8.2442749 36.40201416 -8.86745605 35.86262207 -9.50952148 35.30688477 C-10.36035122 34.5608583 -11.19985416 33.80014584 -12 33 C-12.38235426 26.60118895 -11.95477011 20.32535196 -11 14 C-13.32357511 13.81509993 -13.32357511 13.81509993 -16 16 Z " fill="#0094FF" transform="translate(1129,59)"/>
</svg>
